<?xml version="1.0" encoding="UTF-8" standalone="no"?> <!-- Created with Vectornator for iOS (http://vectornator.io/) --><!DOCTYPE svg PUBLIC "-//W3C//DTD SVG 1.1//EN" "http://www.w3.org/Graphics/SVG/1.1/DTD/svg11.dtd">
<svg height="100%" style="fill-rule:nonzero;clip-rule:evenodd;stroke-linecap:round;stroke-linejoin:round;" xmlns:xlink="http://www.w3.org/1999/xlink" xmlns="http://www.w3.org/2000/svg" xml:space="preserve" width="100%" xmlns:vectornator="http://vectornator.io" version="1.1" viewBox="0 0 700 300">
<metadata>
<vectornator:setting key="DimensionsVisible" value="1"/>
<vectornator:setting key="PencilOnly" value="0"/>
<vectornator:setting key="SnapToPoints" value="0"/>
<vectornator:setting key="OutlineMode" value="0"/>
<vectornator:setting key="CMYKEnabledKey" value="0"/>
<vectornator:setting key="RulersVisible" value="1"/>
<vectornator:setting key="SnapToEdges" value="0"/>
<vectornator:setting key="GuidesVisible" value="1"/>
<vectornator:setting key="DisplayWhiteBackground" value="1"/>
<vectornator:setting key="doHistoryDisabled" value="0"/>
<vectornator:setting key="SnapToGuides" value="1"/>
<vectornator:setting key="TimeLapseWatermarkDisabled" value="0"/>
<vectornator:setting key="Units" value="Pixels"/>
<vectornator:setting key="DynamicGuides" value="0"/>
<vectornator:setting key="IsolateActiveLayer" value="0"/>
<vectornator:setting key="SnapToGrid" value="0"/>
</metadata>
<defs/>
<g id="レイヤー 1" vectornator:layerName="レイヤー 1">
<path d="M34.9462+148.67L34.9462+148.67C39.1444+148.67+42.5478+152.074+42.5478+156.272L42.5478+156.272C42.5478+160.47+39.1444+163.874+34.9462+163.874L34.9462+163.874C30.748+163.874+27.3446+160.47+27.3446+156.272L27.3446+156.272C27.3446+152.074+30.748+148.67+34.9462+148.67Z" opacity="1" fill="#ffd900"/>
<path d="M27.9775+8.06479L27.9775+8.06479C32.2806+8.06479+35.7689+11.5531+35.7689+15.8562L35.7689+15.8562C35.7689+20.1593+32.2806+23.6476+27.9775+23.6476L27.9775+23.6476C23.6744+23.6476+20.1861+20.1593+20.1861+15.8562L20.1861+15.8562C20.1861+11.5531+23.6744+8.06479+27.9775+8.06479Z" opacity="1" fill="#0095d9"/>
<path d="M117.612+31.1218L117.612+31.1218C121.725+31.1218+125.06+34.4561+125.06+38.5692L125.06+38.5692C125.06+42.6823+121.725+46.0167+117.612+46.0167L117.612+46.0167C113.499+46.0167+110.165+42.6823+110.165+38.5692L110.165+38.5692C110.165+34.4561+113.499+31.1218+117.612+31.1218Z" opacity="1" fill="#e82a92"/>
<path d="M544.272+105.795L544.272+105.795C548.575+105.795+552.063+109.283+552.063+113.586L552.063+113.586C552.063+117.889+548.575+121.378+544.272+121.378L544.272+121.378C539.969+121.378+536.481+117.889+536.481+113.586L536.481+113.586C536.481+109.283+539.969+105.795+544.272+105.795Z" opacity="1" fill="#0095d9"/>
<path d="M258.943+89.7189L258.943+89.7189C263.246+89.7189+266.735+93.2072+266.735+97.5103L266.735+97.5103C266.735+101.813+263.246+105.302+258.943+105.302L258.943+105.302C254.64+105.302+251.152+101.813+251.152+97.5103L251.152+97.5103C251.152+93.2072+254.64+89.7189+258.943+89.7189Z" opacity="1" fill="#0095d9"/>
<path d="M133.882+207.372L133.882+207.372C138.185+207.372+141.673+210.86+141.673+215.163L141.673+215.163C141.673+219.466+138.185+222.955+133.882+222.955L133.882+222.955C129.579+222.955+126.091+219.466+126.091+215.163L126.091+215.163C126.091+210.86+129.579+207.372+133.882+207.372Z" opacity="1" fill="#0095d9"/>
<path d="M342.446+95.881L342.446+95.881C346.749+95.881+350.237+99.3694+350.237+103.672L350.237+103.672C350.237+107.976+346.749+111.464+342.446+111.464L342.446+111.464C338.143+111.464+334.654+107.976+334.654+103.672L334.654+103.672C334.654+99.3694+338.143+95.881+342.446+95.881Z" opacity="1" fill="#0095d9"/>
<path d="M477.795+199.529L477.795+199.529C482.098+199.529+485.586+203.017+485.586+207.32L485.586+207.32C485.586+211.623+482.098+215.111+477.795+215.111L477.795+215.111C473.492+215.111+470.003+211.623+470.003+207.32L470.003+207.32C470.003+203.017+473.492+199.529+477.795+199.529Z" opacity="1" fill="#0095d9"/>
<path d="M596.607+67.7772L596.607+67.7772C600.91+67.7772+604.398+71.2655+604.398+75.5686L604.398+75.5686C604.398+79.8717+600.91+83.36+596.607+83.36L596.607+83.36C592.304+83.36+588.815+79.8717+588.815+75.5686L588.815+75.5686C588.815+71.2655+592.304+67.7772+596.607+67.7772Z" opacity="1" fill="#0095d9"/>
<path d="M650.825+250.987L650.825+250.987C655.128+250.987+658.616+254.475+658.616+258.778L658.616+258.778C658.616+263.081+655.128+266.57+650.825+266.57L650.825+266.57C646.522+266.57+643.033+263.081+643.033+258.778L643.033+258.778C643.033+254.475+646.522+250.987+650.825+250.987Z" opacity="1" fill="#0095d9"/>
<path d="M493.221+46.0791L493.221+46.0791C497.524+46.0791+501.013+49.5674+501.013+53.8705L501.013+53.8705C501.013+58.1736+497.524+61.6619+493.221+61.6619L493.221+61.6619C488.918+61.6619+485.43+58.1736+485.43+53.8705L485.43+53.8705C485.43+49.5674+488.918+46.0791+493.221+46.0791Z" opacity="1" fill="#0095d9"/>
<path d="M314.603+223.26L314.603+223.26C318.906+223.26+322.394+226.748+322.394+231.051L322.394+231.051C322.394+235.354+318.906+238.843+314.603+238.843L314.603+238.843C310.3+238.843+306.811+235.354+306.811+231.051L306.811+231.051C306.811+226.748+310.3+223.26+314.603+223.26Z" opacity="1" fill="#0095d9"/>
<path d="M56.0019+245.663L56.0019+245.663C60.115+245.663+63.4494+248.997+63.4494+253.11L63.4494+253.11C63.4494+257.223+60.115+260.558+56.0019+260.558L56.0019+260.558C51.8888+260.558+48.5545+257.223+48.5545+253.11L48.5545+253.11C48.5545+248.997+51.8888+245.663+56.0019+245.663Z" opacity="1" fill="#e82a92"/>
<path d="M132.947+152.559L132.947+152.559C137.06+152.559+140.394+155.894+140.394+160.007L140.394+160.007C140.394+164.12+137.06+167.454+132.947+167.454L132.947+167.454C128.834+167.454+125.499+164.12+125.499+160.007L125.499+160.007C125.499+155.894+128.834+152.559+132.947+152.559Z" opacity="1" fill="#e82a92"/>
<path d="M641.1+149.931L641.1+149.931C645.213+149.931+648.547+153.265+648.547+157.378L648.547+157.378C648.547+161.492+645.213+164.826+641.1+164.826L641.1+164.826C636.987+164.826+633.653+161.492+633.653+157.378L633.653+157.378C633.653+153.265+636.987+149.931+641.1+149.931Z" opacity="1" fill="#e82a92"/>
<path d="M395.472+236.845L395.472+236.845C399.585+236.845+402.92+240.18+402.92+244.293L402.92+244.293C402.92+248.406+399.585+251.74+395.472+251.74L395.472+251.74C391.359+251.74+388.025+248.406+388.025+244.293L388.025+244.293C388.025+240.18+391.359+236.845+395.472+236.845Z" opacity="1" fill="#e82a92"/>
<path d="M184.428+97.9169L184.428+97.9169C188.541+97.9169+191.875+101.251+191.875+105.364L191.875+105.364C191.875+109.477+188.541+112.812+184.428+112.812L184.428+112.812C180.314+112.812+176.98+109.477+176.98+105.364L176.98+105.364C176.98+101.251+180.314+97.9169+184.428+97.9169Z" opacity="1" fill="#e82a92"/>
<path d="M355.465+161.718L355.465+161.718C359.578+161.718+362.913+165.053+362.913+169.166L362.913+169.166C362.913+173.279+359.578+176.613+355.465+176.613L355.465+176.613C351.352+176.613+348.018+173.279+348.018+169.166L348.018+169.166C348.018+165.053+351.352+161.718+355.465+161.718Z" opacity="1" fill="#e82a92"/>
<path d="M410.088+31.9094L410.088+31.9094C414.201+31.9094+417.536+35.2438+417.536+39.3569L417.536+39.3569C417.536+43.47+414.201+46.8043+410.088+46.8043L410.088+46.8043C405.975+46.8043+402.641+43.47+402.641+39.3569L402.641+39.3569C402.641+35.2438+405.975+31.9094+410.088+31.9094Z" opacity="1" fill="#e82a92"/>
<path d="M539.07+245.033L539.07+245.033C543.183+245.033+546.517+248.367+546.517+252.481L546.517+252.481C546.517+256.594+543.183+259.928+539.07+259.928L539.07+259.928C534.957+259.928+531.622+256.594+531.622+252.481L531.622+252.481C531.622+248.367+534.957+245.033+539.07+245.033Z" opacity="1" fill="#e82a92"/>
<path d="M586.126+9.48945L586.126+9.48945C590.239+9.48945+593.573+12.8238+593.573+16.9369L593.573+16.9369C593.573+21.05+590.239+24.3844+586.126+24.3844L586.126+24.3844C582.012+24.3844+578.678+21.05+578.678+16.9369L578.678+16.9369C578.678+12.8238+582.012+9.48945+586.126+9.48945Z" opacity="1" fill="#e82a92"/>
<path d="M249.985+214.172L249.985+214.172C254.098+214.172+257.432+217.506+257.432+221.62L257.432+221.62C257.432+225.733+254.098+229.067+249.985+229.067L249.985+229.067C245.872+229.067+242.537+225.733+242.537+221.62L242.537+221.62C242.537+217.506+245.872+214.172+249.985+214.172Z" opacity="1" fill="#e82a92"/>
<path d="M292.625+11.0549L292.625+11.0549C296.823+11.0549+300.227+14.4583+300.227+18.6565L300.227+18.6565C300.227+22.8547+296.823+26.2581+292.625+26.2581L292.625+26.2581C288.427+26.2581+285.024+22.8547+285.024+18.6565L285.024+18.6565C285.024+14.4583+288.427+11.0549+292.625+11.0549Z" opacity="1" fill="#ffd900"/>
<path d="M208.084+250.773L208.084+250.773C212.282+250.773+215.686+254.176+215.686+258.375L215.686+258.375C215.686+262.573+212.282+265.976+208.084+265.976L208.084+265.976C203.886+265.976+200.483+262.573+200.483+258.375L200.483+258.375C200.483+254.176+203.886+250.773+208.084+250.773Z" opacity="1" fill="#ffd900"/>
<path d="M661.608+69.3416L661.608+69.3416C665.806+69.3416+669.209+72.7449+669.209+76.9431L669.209+76.9431C669.209+81.1414+665.806+84.5447+661.608+84.5447L661.608+84.5447C657.41+84.5447+654.006+81.1414+654.006+76.9431L654.006+76.9431C654.006+72.7449+657.41+69.3416+661.608+69.3416Z" opacity="1" fill="#ffd900"/>
<path d="M213.388+29.0972L213.388+29.0972C217.586+29.0972+220.99+32.5006+220.99+36.6988L220.99+36.6988C220.99+40.8971+217.586+44.3004+213.388+44.3004L213.388+44.3004C209.19+44.3004+205.786+40.8971+205.786+36.6988L205.786+36.6988C205.786+32.5006+209.19+29.0972+213.388+29.0972Z" opacity="1" fill="#ffd900"/>
<path d="M90.2612+99.1683L90.2612+99.1683C94.4594+99.1683+97.8628+102.572+97.8628+106.77L97.8628+106.77C97.8628+110.968+94.4594+114.371+90.2612+114.371L90.2612+114.371C86.0629+114.371+82.6596+110.968+82.6596+106.77L82.6596+106.77C82.6596+102.572+86.0629+99.1683+90.2612+99.1683Z" opacity="1" fill="#ffd900"/>
<path d="M533.886+162.4L533.886+162.4C538.085+162.4+541.488+165.803+541.488+170.001L541.488+170.001C541.488+174.199+538.085+177.603+533.886+177.603L533.886+177.603C529.688+177.603+526.285+174.199+526.285+170.001L526.285+170.001C526.285+165.803+529.688+162.4+533.886+162.4Z" opacity="1" fill="#ffd900"/>
<path d="M434.131+125.904L434.131+125.904C438.329+125.904+441.733+129.308+441.733+133.506L441.733+133.506C441.733+137.704+438.329+141.107+434.131+141.107L434.131+141.107C429.933+141.107+426.529+137.704+426.529+133.506L426.529+133.506C426.529+129.308+429.933+125.904+434.131+125.904Z" opacity="1" fill="#ffd900"/>
<path d="M599.471+203.405L599.471+203.405C603.669+203.405+607.073+206.809+607.073+211.007L607.073+211.007C607.073+215.205+603.669+218.609+599.471+218.609L599.471+218.609C595.273+218.609+591.869+215.205+591.869+211.007L591.869+211.007C591.869+206.809+595.273+203.405+599.471+203.405Z" opacity="1" fill="#ffd900"/>
<path d="M252.491+153.757L252.491+153.757C256.689+153.757+260.092+157.16+260.092+161.358L260.092+161.358C260.092+165.556+256.689+168.96+252.491+168.96L252.491+168.96C248.292+168.96+244.889+165.556+244.889+161.358L244.889+161.358C244.889+157.16+248.292+153.757+252.491+153.757Z" opacity="1" fill="#ffd900"/>
</g>
</svg>
